<svg width="24" height="24" viewBox="0 0 24 24" fill="none" xmlns="http://www.w3.org/2000/svg">
<path d="M17.476 16.7911L18.2106 20.0634L12.0001 22L5.85613 20.0634L6.52394 16.7911L10.7591 15.7581C10.7764 15.9301 10.7947 16.1046 10.8138 16.2816L7.65922 17.0582L7.19175 19.5959L12.0001 20.9983L16.8082 19.5959L16.3407 17.0582L13.1697 16.2776L13.1763 15.7423L17.476 16.7911ZM10.9344 17.3334L9.80234 17.6258L9.72943 18.7945L12 19.3955L14.2705 18.7945L14.1978 17.6258L13.1564 17.3569L13.1637 16.7603L15.3612 17.333L15.4726 19.1361L12.0001 20.1301L8.52737 19.1361L8.63889 17.333L10.8661 16.7526C10.8878 16.943 10.9106 17.1366 10.9344 17.3334ZM11.2521 12.124L11.2877 12.1507H12.1804L12.217 12.1215L12.5144 11.8836H13.202V12.3168C13.202 12.3699 13.1809 12.4208 13.1433 12.4584L12.9339 12.6677L12.8681 18.2603H13.4692L13.2688 18.5274H10.7311L10.5976 18.2603H11.2637C10.9317 15.643 10.7734 13.651 10.7027 11.7119L11.2521 12.124ZM7.32531 12.1832L8.26025 14.988L5.45544 10.3133L7.32531 12.1832ZM15.8065 14.988L16.6747 12.1832L18.5445 10.3801L15.8065 14.988ZM8.52737 7.50852L9.92977 14.5205L7.12497 6.03934L8.52737 7.50852ZM14.0702 14.5205L15.4726 7.50852L16.875 6.10612L14.0702 14.5205ZM12.2108 2.00013C12.4232 2.00355 12.632 2.07232 12.793 2.21509C12.9463 2.35102 13.0439 2.54353 13.065 2.77738L13.0682 2.82472L13.0683 2.82811L13.1351 5.23223C13.1357 5.25234 13.1331 5.27247 13.1277 5.29184C12.6584 6.96906 12.584 7.95946 12.6643 9.75938L12.951 10.0461H13.6026C13.7132 10.0461 13.8029 10.1358 13.8029 10.2464L13.8031 11.2481C13.8031 11.3151 13.7696 11.3778 13.7139 11.415L13.4024 11.6226V11.6165H12.4206L12.384 11.6457L12.0866 11.8836H11.3766L10.6911 11.3694C10.637 9.64336 10.6486 7.93386 10.6642 5.8373L10.6655 5.81656C10.6663 5.80971 10.6675 5.80284 10.6689 5.79609C10.9271 4.61278 11.0781 3.9692 11.0649 2.83607C11.0646 2.80553 11.0712 2.77523 11.0844 2.74764C11.3234 2.24538 11.7859 1.99332 12.2108 2.00013Z" fill="white"/>
</svg>
